PathFileType	4	(X/Y/Z)	c:/Users/goper/Files/vsCode/490R/osim_files/C04/C04_Fast_05.trc
DataRate	CameraRate	NumFrames	NumMarkers	Units                	OrigDataRate	OrigDataStartFrame	OrigNumFrames
250.00	250.00	6	36	mm	250.0	989	2637
                Frame#	Time	LPSIS			LASIS			LTH1			LTH2			LTH3			LTH4			LLFE			LMFE			LSH1			LSH2			LSH3			LSH4			LLMAL			LMMAL			LCAL			LMTP5			LTOE			LMTP1			RPSIS			RASIS			RTH1			RTH2			RTH3			RTH4			RLFE			RMFE			RSH1			RSH2			RSH3			RSH4			RLMAL			RMMAL			RCAL			RMTP1			RTOE			RMTP5		
		X1	Y1	Z1	X2	Y2	Z2	X3	Y3	Z3	X4	Y4	Z4	X5	Y5	Z5	X6	Y6	Z6	X7	Y7	Z7	X8	Y8	Z8	X9	Y9	Z9	X10	Y10	Z10	X11	Y11	Z11	X12	Y12	Z12	X13	Y13	Z13	X14	Y14	Z14	X15	Y15	Z15	X16	Y16	Z16	X17	Y17	Z17	X18	Y18	Z18	X19	Y19	Z19	X20	Y20	Z20	X21	Y21	Z21	X22	Y22	Z22	X23	Y23	Z23	X24	Y24	Z24	X25	Y25	Z25	X26	Y26	Z26	X27	Y27	Z27	X28	Y28	Z28	X29	Y29	Z29	X30	Y30	Z30	X31	Y31	Z31	X32	Y32	Z32	X33	Y33	Z33	X34	Y34	Z34	X35	Y35	Z35	X36	Y36	Z36

989	3.95200	-65.62861	966.37683	281.39630	-232.60298	950.55115	349.29071	-183.52046	696.67285	411.48325	-212.70041	642.52045	399.96222	-239.26132	732.80103	418.49280	-276.61218	683.24707	407.05594	-340.15781	480.85416	369.81821	-358.19525	473.22867	254.64456	-313.53625	369.57227	376.22293	-318.32449	321.94339	371.74457	-364.73062	379.93979	383.81561	-377.06100	333.55515	380.98749	-416.72906	89.54277	358.24777	-423.15701	114.87669	269.74698	-368.55112	45.16721	301.39023	-558.83197	86.33348	379.50421	-574.23102	124.51174	330.96771	-561.29321	90.79462	275.16745	-63.48661	971.73358	206.40996	-230.65553	945.58594	132.67712	-104.36929	726.35626	64.37427	-97.76160	666.42737	79.86664	-169.04605	726.75409	68.48145	-175.21021	664.50720	87.52020	-110.80765	450.20511	130.17993	-97.49263	455.09933	243.52228	-11.76892	337.33307	116.62661	-3.48330	293.36740	123.02966	0.00000	0.00000	0.00000	0.00000	0.00000	0.00000	42.29820	90.18485	159.45091	42.87584	101.94421	252.54149	112.54342	69.04765	200.51550	-75.29090	28.42607	261.18304	-110.16320	45.31827	221.99335	-83.23449	19.68262	157.04698
990	3.95600	-70.47781	965.66785	281.97269	-237.75056	949.88373	349.30994	-188.13132	696.03827	411.80469	-216.95297	641.69165	400.44577	-244.06071	731.91626	418.70392	-281.46152	682.13885	407.46689	-344.93936	479.86560	369.90585	-362.04318	472.04959	254.56213	-320.08826	368.33469	376.72989	-325.78674	320.66754	372.30780	-371.27545	379.52521	383.86798	-384.28101	333.37860	381.09927	-428.22168	89.89568	358.54956	-433.59766	115.23850	270.06165	-380.39682	44.64260	302.04239	-570.44843	89.15646	379.13876	-584.81921	127.58942	330.38879	-572.30005	93.56226	274.74466	-68.11475	971.01544	206.97546	-235.18094	944.73309	132.79338	-108.07801	725.86780	64.77146	-101.18600	666.00433	80.15525	-172.63350	726.01129	68.70721	-178.72536	663.81732	87.39674	-113.53306	449.76797	130.48299	-100.35163	454.55908	243.74260	-14.65682	337.31015	116.17644	-5.62863	293.55310	123.15299	0.00000	0.00000	0.00000	0.00000	0.00000	0.00000	42.00010	90.63913	159.39372	42.53369	102.31295	252.58879	112.21514	69.72126	200.54106	-73.52969	31.04272	262.47998	-110.28250	45.30172	221.98169	-83.25982	19.66373	157.04605
991	3.96000	-75.51797	964.86017	282.51669	-242.91074	949.12512	349.44617	-192.99571	695.36700	412.17996	-221.68294	640.88251	400.84467	-248.95724	731.08264	418.90164	-286.49725	680.98932	407.75253	-349.76810	478.86450	370.08057	-366.02261	470.89484	254.32788	-326.76251	366.99777	376.99054	-332.90820	319.50189	372.88232	-377.48618	379.19196	383.99548	-391.38095	333.10065	381.10797	-439.35376	90.35219	358.82785	-443.79672	115.58462	270.30423	-391.86719	44.22434	302.66583	-581.58801	91.91663	378.73999	-595.20685	130.47031	329.90970	-582.79352	96.28832	274.24313	-72.81504	970.20966	207.55792	-239.71843	943.97272	132.75224	-111.66708	725.52594	65.03818	-104.64195	665.68323	80.49252	-176.36272	725.31012	68.88125	-182.27574	663.15442	87.24464	-116.14746	449.35794	130.84918	-103.19856	454.11389	243.94295	-16.79288	337.43771	116.36455	-7.34440	293.64499	123.37498	0.00000	0.00000	0.00000	0.00000	0.00000	0.00000	41.74443	91.13052	159.33250	42.12025	102.73079	252.65038	111.91167	70.47559	200.57823	-73.59593	31.03284	262.46289	-110.34922	45.23634	221.99646	-83.28144	19.68232	157.06319
992	3.96400	-80.40700	964.13745	283.02991	-247.98097	948.44995	349.40753	-197.73366	694.76404	412.66638	-226.31099	640.11255	401.37732	-254.01012	730.33313	419.16785	-291.67282	679.86713	407.93939	-354.48065	477.83041	370.27469	-369.93054	469.66583	254.25610	-333.13113	365.77667	377.45612	-340.05273	318.30002	373.38394	-383.72400	378.62790	384.03918	-398.22491	332.87915	381.21976	-450.03903	90.73148	359.07077	-453.68860	115.96702	270.42850	-402.93277	43.82512	303.15881	-592.29266	94.57221	378.35159	-605.02478	133.22729	329.34018	-592.95813	98.81440	273.80127	-77.62544	969.34692	208.07658	-244.17392	943.12366	132.65344	-115.53686	725.06458	65.42041	-108.26710	665.23914	80.84523	-180.23352	724.77673	68.95004	-185.86237	662.51855	87.07296	-119.86806	448.51221	129.91382	-106.18272	453.66339	244.12253	-18.85322	337.63443	116.54510	-9.04653	293.95767	123.52241	0.00000	0.00000	0.00000	0.00000	0.00000	0.00000	41.28234	91.58669	159.26550	41.65623	103.16741	252.67223	111.60401	71.30299	200.57742	-73.58921	31.02732	262.45187	-110.42944	45.20900	222.03224	-83.26440	19.65651	157.05963
993	3.96800	-85.37546	963.38696	283.58530	-253.17589	947.78589	349.56580	-202.80307	694.17493	413.12650	-231.05789	639.41882	401.92224	-259.15540	729.59528	419.36765	-296.92767	678.85541	408.06302	-359.16309	476.88400	370.59201	-373.91135	468.44595	254.15718	-339.41315	364.57068	377.75638	-346.96973	317.27209	373.87100	-389.89346	378.19809	384.13104	-404.99356	332.64047	381.35312	-460.32596	91.19884	359.13391	-463.06232	116.41441	270.49582	-413.67398	43.56013	303.52344	-602.53333	97.11235	377.88644	-614.51819	135.88425	328.72800	-602.68085	101.22513	273.27008	-82.38747	968.56238	208.63773	-248.76793	942.41364	132.77753	-119.26311	724.71692	65.74889	-111.87194	664.85504	81.12284	-184.03493	724.14374	69.08546	-189.48618	661.90985	86.89069	-122.84663	447.97620	130.14513	-109.34293	453.10950	244.31219	-20.96133	337.89584	116.71407	-10.19510	294.64835	123.51128	0.00000	0.00000	0.00000	0.00000	0.00000	0.00000	40.80938	92.05086	159.23723	41.16666	103.75536	252.64125	111.26734	72.16136	200.58292	-73.64471	31.07672	262.47778	-110.52757	45.11068	222.03644	-83.29128	19.66224	157.06554
994	3.97200	-90.43440	962.66382	284.14197	-258.42532	947.13257	349.68887	-208.03508	693.58051	413.60236	-236.04546	638.73206	402.43716	-264.46088	728.93878	419.58670	-302.20142	678.03705	408.15897	-363.92081	475.88144	370.84543	-377.91833	467.26624	254.11600	-345.66660	363.39395	377.96603	-353.73984	316.18634	374.28116	-395.76828	377.87000	384.22711	-411.51495	332.41092	381.38342	-470.10254	91.72483	359.20325	-472.25308	116.82229	270.57983	-423.86078	43.31667	303.81198	-612.33752	99.47887	377.33994	-623.61871	138.36522	328.11783	-611.94012	103.56075	272.80737	-87.15470	967.78516	209.23189	-253.37816	941.50714	132.96912	-123.15239	724.31989	66.16630	-115.56528	664.49817	81.53702	-187.84042	723.41376	69.32906	-193.14818	661.32843	86.70687	-125.83041	447.50119	130.33672	-112.55119	452.63535	244.42781	-23.11719	338.13062	116.85351	-12.72590	294.51584	123.86828	0.00000	0.00000	0.00000	0.00000	0.00000	0.00000	40.36901	92.63345	159.20470	40.72546	104.31739	252.61813	110.90318	73.07042	200.63965	-73.71755	31.06647	262.44339	-110.60313	45.02937	222.00917	-83.30444	19.62801	157.04306
